<?xml version="1.0" encoding="UTF-8" standalone="no"?>
<!-- Created with Inkscape (http://www.inkscape.org/) -->

<svg
   xmlns:dc="http://purl.org/dc/elements/1.1/"
   xmlns:cc="http://creativecommons.org/ns#"
   xmlns:rdf="http://www.w3.org/1999/02/22-rdf-syntax-ns#"
   xmlns:svg="http://www.w3.org/2000/svg"
   xmlns="http://www.w3.org/2000/svg"
   xmlns:sodipodi="http://sodipodi.sourceforge.net/DTD/sodipodi-0.dtd"
   xmlns:inkscape="http://www.inkscape.org/namespaces/inkscape"
   width="100.43165mm"
   height="101.16673mm"
   viewBox="0 0 100.43166 101.16673"
   version="1.1"
   id="svg8"
   inkscape:version="0.92.2 (5c3e80d, 2017-08-06)"
   sodipodi:docname="B.svg">
  <defs
     id="defs2">
    <inkscape:path-effect
       effect="bspline"
       id="path-effect885"
       is_visible="true"
       weight="33.333333"
       steps="2"
       helper_size="0"
       apply_no_weight="true"
       apply_with_weight="true"
       only_selected="false" />
  </defs>
  <sodipodi:namedview
     id="base"
     pagecolor="#ffffff"
     bordercolor="#666666"
     borderopacity="1.0"
     inkscape:pageopacity="0.0"
     inkscape:pageshadow="2"
     inkscape:zoom="1.28"
     inkscape:cx="327.73806"
     inkscape:cy="144.07123"
     inkscape:document-units="mm"
     inkscape:current-layer="g4617"
     showgrid="false"
     fit-margin-top="0"
     fit-margin-left="0"
     fit-margin-right="0"
     fit-margin-bottom="0"
     inkscape:window-width="1920"
     inkscape:window-height="1017"
     inkscape:window-x="-8"
     inkscape:window-y="-8"
     inkscape:window-maximized="1"
     inkscape:pagecheckerboard="true" />
  <metadata
     id="metadata5">
    <rdf:RDF>
      <cc:Work
         rdf:about="">
        <dc:format>image/svg+xml</dc:format>
        <dc:type
           rdf:resource="http://purl.org/dc/dcmitype/StillImage" />
        <dc:title />
      </cc:Work>
    </rdf:RDF>
  </metadata>
  <g
     inkscape:label="Ebene 1"
     inkscape:groupmode="layer"
     id="layer1"
     transform="translate(873.92002,299.83571)">
    <g
       id="g4617">
      <path
         style="fill:#00002b;stroke:none;stroke-width:0.26458332px;stroke-linecap:butt;stroke-linejoin:miter;stroke-opacity:1"
         d="m -844.98057,-288.99788 c 9.8722,-3.89753 27.81333,-4.87195 41.06611,3.313 13.25277,8.18495 21.81775,25.52988 20.96137,41.16927 -0.85638,15.6394 -11.13415,29.57353 -25.73973,33.32515 -14.60557,3.75162 -33.53802,-2.67942 -42.55371,-14.42142 -9.01569,-11.74199 -8.11414,-28.7942 -6.76177,-40.73081 1.35236,-11.9366 3.15552,-18.75765 13.02773,-22.65519 z"
         id="path883"
         inkscape:connector-curvature="0"
         inkscape:path-effect="#path-effect885"
         inkscape:original-d="m -853.04973,-291.92098 c 17.94135,-0.97469 35.88248,-1.9491 53.82336,-2.92326 8.56497,17.34417 17.12996,34.68909 25.69457,52.03403 -10.27764,13.93402 -20.55541,27.86815 -30.83349,41.80263 -18.93299,-6.43158 -37.86544,-12.86261 -56.79852,-19.29352 0.90182,-17.05276 1.80336,-34.10497 2.70469,-51.15706 1.80334,-6.82109 3.6065,-13.64214 5.40939,-20.46282 z" />
      <path
         id="path34"
         d="m -785.54437,-253.35185 c -0.3726,-3.72599 -2.1001,-7.28262 -4.8946,-9.89081 -2.8961,-2.69287 -6.656,-4.18327 -10.619,-4.18327 -7.0286,0 -13.0918,4.64055 -14.9887,11.34733 -1.1855,-1.18554 -3.1332,-1.98154 -4.9623,-1.98154 -1.8291,0 -3.7768,0.796 -4.9624,1.98154 -1.8969,-6.70678 -7.96,-11.34733 -14.9886,-11.34733 -3.9462,0 -7.723,1.47346 -10.6191,4.16634 -2.7945,2.62512 -4.52204,6.18175 -4.89464,9.90774 h -2.4727 v 3.04853 h 2.4727 c 0.3726,3.726 2.10014,7.28262 4.89464,9.89081 2.8961,2.69287 6.656,4.18327 10.6191,4.18327 8.6036,0 15.5984,-6.97776 15.5984,-15.58141 0,-0.017 0,-0.017 0,-0.017 v 0 c 0,-1.67669 1.9476,-3.65824 4.3526,-3.65824 2.405,0 4.3526,1.98155 4.3526,3.65824 v 0 c 0,0 0,0 0,0.017 0,8.60365 6.9947,15.58141 15.5984,15.58141 3.9461,0 7.7229,-1.47346 10.619,-4.18327 2.7945,-2.60819 4.522,-6.18175 4.8946,-9.90774 h 2.4727 v -3.04853 h -2.4727 z m -15.5136,14.56523 c -7.198,0 -13.041,-5.85996 -13.041,-13.04097 0,-7.19793 5.86,-13.04095 13.041,-13.04095 7.1979,0 13.0409,5.85996 13.0409,13.04095 0,7.19794 -5.843,13.04097 -13.0409,13.04097 z m -39.902,0 c -7.198,0 -13.041,-5.85996 -13.041,-13.04097 0,-7.19793 5.86,-13.04095 13.041,-13.04095 7.1979,0 13.041,5.85996 13.041,13.04095 0,7.19794 -5.8431,13.04097 -13.041,13.04097 z"
         inkscape:connector-curvature="0"
         style="fill:#ffffff;stroke-width:0.26458332" />
      <path
         sodipodi:type="star"
         style="opacity:1;vector-effect:none;fill:#ffffff;fill-opacity:1;fill-rule:nonzero;stroke:none;stroke-width:4;stroke-linecap:square;stroke-linejoin:miter;stroke-miterlimit:4;stroke-dasharray:none;stroke-dashoffset:0;stroke-opacity:1;paint-order:fill markers stroke"
         id="path887"
         sodipodi:sides="3"
         sodipodi:cx="-815.89331"
         sodipodi:cy="-218.25482"
         sodipodi:r1="11.959035"
         sodipodi:r2="5.9795179"
         sodipodi:arg1="0.61135292"
         sodipodi:arg2="1.6585505"
         inkscape:flatsided="true"
         inkscape:rounded="0"
         inkscape:randomized="0"
         d="m -806.10038,-211.39062 -20.63396,-1.81538 11.88914,-16.96184 z"
         inkscape:transform-center-x="-2.8810702"
         inkscape:transform-center-y="-0.12474471"
         transform="rotate(86.16756,-828.14177,-223.20635)" />
      <path
         sodipodi:type="star"
         style="opacity:1;vector-effect:none;fill:#ffffff;fill-opacity:1;fill-rule:nonzero;stroke:none;stroke-width:4;stroke-linecap:square;stroke-linejoin:miter;stroke-miterlimit:4;stroke-dasharray:none;stroke-dashoffset:0;stroke-opacity:1;paint-order:fill markers stroke"
         id="path887-8"
         sodipodi:sides="3"
         sodipodi:cx="-815.89331"
         sodipodi:cy="-218.25482"
         sodipodi:r1="11.959035"
         sodipodi:r2="5.9795179"
         sodipodi:arg1="0.61135292"
         sodipodi:arg2="1.6585505"
         inkscape:flatsided="true"
         inkscape:rounded="0"
         inkscape:randomized="0"
         d="m -806.10039,-211.39062 -20.63395,-1.81538 11.88914,-16.96184 z"
         inkscape:transform-center-x="2.8810746"
         inkscape:transform-center-y="-0.12474764"
         transform="matrix(-0.06683883,0.99776379,0.99776379,0.06683883,-645.11729,618.00237)" />
    </g>
  </g>
</svg>
