<?xml version="1.0" encoding="UTF-8" standalone="no"?>
<!-- Created with Inkscape (http://www.inkscape.org/) -->

<svg
   width="107.4007mm"
   height="77.864578mm"
   viewBox="0 0 107.40072 77.86458"
   version="1.1"
   id="svg8"
   inkscape:version="1.1 (c68e22c387, 2021-05-23)"
   sodipodi:docname="Logo-WB.svg"
   xmlns:inkscape="http://www.inkscape.org/namespaces/inkscape"
   xmlns:sodipodi="http://sodipodi.sourceforge.net/DTD/sodipodi-0.dtd"
   xmlns="http://www.w3.org/2000/svg"
   xmlns:svg="http://www.w3.org/2000/svg"
   xmlns:rdf="http://www.w3.org/1999/02/22-rdf-syntax-ns#"
   xmlns:cc="http://creativecommons.org/ns#"
   xmlns:dc="http://purl.org/dc/elements/1.1/">
  <defs
     id="defs2">
    <inkscape:path-effect
       effect="bspline"
       id="path-effect885"
       is_visible="true"
       weight="33.333333"
       steps="2"
       helper_size="0"
       apply_no_weight="true"
       apply_with_weight="true"
       only_selected="false"
       lpeversion="0" />
  </defs>
  <sodipodi:namedview
     id="base"
     pagecolor="#aaaaaa"
     bordercolor="#666666"
     borderopacity="1.0"
     inkscape:pageopacity="0.29411765"
     inkscape:pageshadow="2"
     inkscape:zoom="0.64"
     inkscape:cx="191.40625"
     inkscape:cy="224.21875"
     inkscape:document-units="mm"
     inkscape:current-layer="g4617"
     showgrid="false"
     fit-margin-top="0"
     fit-margin-left="0"
     fit-margin-right="0"
     fit-margin-bottom="0"
     inkscape:window-width="1920"
     inkscape:window-height="1017"
     inkscape:window-x="-8"
     inkscape:window-y="-8"
     inkscape:window-maximized="1"
     inkscape:pagecheckerboard="true" />
  <metadata
     id="metadata5">
    <rdf:RDF>
      <cc:Work
         rdf:about="">
        <dc:format>image/svg+xml</dc:format>
        <dc:type
           rdf:resource="http://purl.org/dc/dcmitype/StillImage" />
      </cc:Work>
    </rdf:RDF>
  </metadata>
  <g
     inkscape:label="Ebene 1"
     inkscape:groupmode="layer"
     id="layer1"
     transform="translate(886.04334,291.61833)">
    <g
       id="g4617">
      <path
         id="path34"
         d="m -781.11533,-277.54425 c -0.3726,-3.72599 -2.1001,-7.28262 -4.8946,-9.89081 -2.8961,-2.69287 -6.656,-4.18327 -10.619,-4.18327 -7.0286,0 -13.0918,4.64055 -14.9887,11.34733 -1.1855,-1.18554 -3.1332,-1.98154 -4.9623,-1.98154 -1.8291,0 -3.7768,0.796 -4.9624,1.98154 -1.8969,-6.70678 -7.95997,-11.34733 -14.98857,-11.34733 -3.9462,0 -7.723,1.47346 -10.6191,4.16634 -2.7945,2.62512 -4.5221,6.18175 -4.8947,9.90774 h -2.4727 v 3.04853 h 2.4727 c 0.3726,3.726 2.1002,7.28261 4.8947,9.89081 2.8961,2.69287 6.656,4.18326 10.6191,4.18326 8.6036,0 15.59837,-6.97775 15.59837,-15.5814 0,-0.017 0,-0.017 0,-0.017 v 0 c 0,-1.67668 1.9476,-3.65824 4.3526,-3.65824 2.405,0 4.3526,1.98156 4.3526,3.65824 v 0 c 0,0 0,0 0,0.017 0,8.60365 6.9947,15.5814 15.5984,15.5814 3.9461,0 7.7229,-1.47346 10.619,-4.18326 2.7945,-2.6082 4.522,-6.18175 4.8946,-9.90775 h 2.4727 v -3.04852 h -2.4727 z m -15.5136,14.56523 c -7.198,0 -13.041,-5.85996 -13.041,-13.04097 0,-7.19793 5.86,-13.04095 13.041,-13.04095 7.1979,0 13.0409,5.85996 13.0409,13.04095 0,7.19793 -5.843,13.04097 -13.0409,13.04097 z m -39.90197,0 c -7.198,0 -13.041,-5.85996 -13.041,-13.04097 0,-7.19793 5.86,-13.04095 13.041,-13.04095 7.1979,0 13.04097,5.85996 13.04097,13.04095 0,7.19793 -5.84307,13.04097 -13.04097,13.04097 z"
         inkscape:connector-curvature="0"
         style="fill:#ffffff;stroke-width:0.264583" />
      <g
         aria-label="Jan-Hannes Schäfer"
         transform="matrix(0.96255052,0,0,0.96255052,-1323.9869,-453.89742)"
         style="font-style:normal;font-variant:normal;font-weight:bold;font-stretch:normal;font-size:24px;line-height:1;font-family:'Latin Modern Sans';-inkscape-font-specification:'Latin Modern Sans Bold';font-variant-ligatures:normal;font-variant-caps:normal;font-variant-numeric:normal;font-feature-settings:normal;text-align:start;letter-spacing:0px;word-spacing:0px;writing-mode:lr-tb;text-anchor:start;fill:#ffffff;fill-opacity:1;stroke:none"
         id="flowRoot15">
        <path
           d="m 462.01367,206.84595 h 2.15625 v 12.08203 q 0,1.26563 -0.33984,2.25 -0.33985,0.97266 -0.94922,1.62891 -0.60938,0.65625 -1.46484,0.99609 -0.84375,0.33985 -1.85157,0.33985 -0.99609,0 -1.83984,-0.29297 -0.83203,-0.30469 -1.44141,-0.91406 -0.60937,-0.6211 -0.96093,-1.54688 -0.33985,-0.9375 -0.33985,-2.1914 h 2.14453 q 0,0.80859 0.1875,1.39453 0.1875,0.58593 0.51563,0.97265 0.32812,0.375 0.77344,0.5625 0.44531,0.17578 0.96093,0.17578 0.52735,0 0.97266,-0.21093 0.45703,-0.22266 0.78516,-0.64453 0.32812,-0.42188 0.5039,-1.05469 0.1875,-0.63281 0.1875,-1.46485 z"
           style="font-style:normal;font-variant:normal;font-weight:normal;font-stretch:normal;line-height:1;font-family:'Roboto Condensed';-inkscape-font-specification:'Roboto Condensed, ';text-align:end;text-anchor:end;fill:#ffffff"
           id="path17" />
        <path
           d="m 473.99023,223.90845 q -0.10546,-0.23437 -0.17578,-0.59765 -0.0586,-0.375 -0.0937,-0.78516 -0.22265,0.32813 -0.51562,0.62109 -0.28125,0.29297 -0.64453,0.51563 -0.35157,0.22266 -0.77344,0.35156 -0.41016,0.12891 -0.87891,0.12891 -0.83203,0 -1.51172,-0.23438 -0.66796,-0.23437 -1.14843,-0.70312 -0.48047,-0.46875 -0.73828,-1.14844 -0.25782,-0.69141 -0.25782,-1.60547 0,-0.91406 0.31641,-1.6875 0.31641,-0.77344 0.9375,-1.33594 0.62109,-0.5625 1.55859,-0.8789 0.9375,-0.32813 2.17969,-0.32813 h 1.44141 v -1.34765 q 0,-1.13672 -0.50391,-1.61719 -0.50391,-0.48047 -1.53516,-0.48047 -0.5039,0 -0.90234,0.16406 -0.38672,0.15235 -0.65625,0.42188 -0.26953,0.26953 -0.41016,0.63281 -0.14062,0.35156 -0.14062,0.75 h -2.07422 q 0,-0.67969 0.29297,-1.34766 0.30469,-0.67968 0.85547,-1.20703 0.5625,-0.53906 1.35937,-0.86718 0.79688,-0.32813 1.78125,-0.32813 0.87891,0 1.60547,0.21094 0.73828,0.21094 1.26563,0.67969 0.53906,0.46875 0.83203,1.20703 0.29297,0.73828 0.29297,1.80468 v 6.2461 q 0,0.3164 0.0234,0.66797 0.0234,0.35156 0.0703,0.6914 0.0586,0.33985 0.1289,0.65625 0.082,0.30469 0.17578,0.5625 v 0.1875 z m -2.76562,-1.65234 q 0.43359,0 0.82031,-0.12891 0.38672,-0.1289 0.70313,-0.32812 0.3164,-0.21094 0.55078,-0.46875 0.24609,-0.26953 0.38672,-0.55078 v -3.02344 h -1.08985 q -0.75,0 -1.35937,0.16406 -0.59766,0.16406 -1.03125,0.48047 -0.42188,0.30469 -0.65625,0.76172 -0.22266,0.45703 -0.22266,1.04297 0,0.57422 0.11719,0.97265 0.11719,0.38672 0.35156,0.63282 0.23438,0.23437 0.58594,0.33984 0.36328,0.10547 0.84375,0.10547 z"
           style="font-style:normal;font-variant:normal;font-weight:normal;font-stretch:normal;line-height:1;font-family:'Roboto Condensed';-inkscape-font-specification:'Roboto Condensed, ';text-align:end;text-anchor:end;fill:#ffffff"
           id="path19" />
        <path
           d="m 480.9043,211.22877 0.0586,1.37109 q 0.57422,-0.76172 1.34766,-1.18359 0.78515,-0.42188 1.73437,-0.42188 0.77344,0 1.40625,0.25781 0.63281,0.2461 1.07813,0.8086 0.44531,0.55078 0.67968,1.42968 0.2461,0.86719 0.2461,2.10938 v 8.30859 h -2.0625 v -8.33203 q 0,-1.48828 -0.50391,-2.10937 -0.49219,-0.63282 -1.48828,-0.63282 -0.77344,0 -1.39453,0.51563 -0.60938,0.51562 -0.98438,1.34766 v 9.21093 h -2.07421 v -12.67968 z"
           style="font-style:normal;font-variant:normal;font-weight:normal;font-stretch:normal;line-height:1;font-family:'Roboto Condensed';-inkscape-font-specification:'Roboto Condensed, ';text-align:end;text-anchor:end;fill:#ffffff"
           id="path21" />
        <path
           d="m 494.41602,217.54517 h -4.83985 v -1.76953 h 4.83985 z"
           style="font-style:normal;font-variant:normal;font-weight:normal;font-stretch:normal;line-height:1;font-family:'Roboto Condensed';-inkscape-font-specification:'Roboto Condensed, ';text-align:end;text-anchor:end;fill:#ffffff"
           id="path23" />
        <path
           d="m 507.98633,223.90845 h -2.15625 v -7.88672 h -6.86719 v 7.88672 h -2.14453 v -17.0625 h 2.14453 v 7.33594 h 6.86719 v -7.33594 h 2.15625 z"
           style="font-style:normal;font-variant:normal;font-weight:normal;font-stretch:normal;line-height:1;font-family:'Roboto Condensed';-inkscape-font-specification:'Roboto Condensed, ';text-align:end;text-anchor:end;fill:#ffffff"
           id="path25" />
        <path
           d="m 517.95898,223.90845 q -0.10546,-0.23437 -0.17578,-0.59765 -0.0586,-0.375 -0.0937,-0.78516 -0.22265,0.32813 -0.51562,0.62109 -0.28125,0.29297 -0.64453,0.51563 -0.35157,0.22266 -0.77344,0.35156 -0.41016,0.12891 -0.87891,0.12891 -0.83203,0 -1.51172,-0.23438 -0.66796,-0.23437 -1.14843,-0.70312 -0.48047,-0.46875 -0.73828,-1.14844 -0.25782,-0.69141 -0.25782,-1.60547 0,-0.91406 0.31641,-1.6875 0.31641,-0.77344 0.9375,-1.33594 0.62109,-0.5625 1.55859,-0.8789 0.9375,-0.32813 2.17969,-0.32813 h 1.44141 v -1.34765 q 0,-1.13672 -0.50391,-1.61719 -0.50391,-0.48047 -1.53516,-0.48047 -0.5039,0 -0.90234,0.16406 -0.38672,0.15235 -0.65625,0.42188 -0.26953,0.26953 -0.41016,0.63281 -0.14062,0.35156 -0.14062,0.75 h -2.07422 q 0,-0.67969 0.29297,-1.34766 0.30469,-0.67968 0.85547,-1.20703 0.5625,-0.53906 1.35937,-0.86718 0.79688,-0.32813 1.78125,-0.32813 0.87891,0 1.60547,0.21094 0.73828,0.21094 1.26563,0.67969 0.53906,0.46875 0.83203,1.20703 0.29297,0.73828 0.29297,1.80468 v 6.2461 q 0,0.3164 0.0234,0.66797 0.0234,0.35156 0.0703,0.6914 0.0586,0.33985 0.1289,0.65625 0.082,0.30469 0.17578,0.5625 v 0.1875 z m -2.76562,-1.65234 q 0.43359,0 0.82031,-0.12891 0.38672,-0.1289 0.70313,-0.32812 0.3164,-0.21094 0.55078,-0.46875 0.24609,-0.26953 0.38672,-0.55078 v -3.02344 h -1.08985 q -0.75,0 -1.35937,0.16406 -0.59766,0.16406 -1.03125,0.48047 -0.42188,0.30469 -0.65625,0.76172 -0.22266,0.45703 -0.22266,1.04297 0,0.57422 0.11719,0.97265 0.11719,0.38672 0.35156,0.63282 0.23438,0.23437 0.58594,0.33984 0.36328,0.10547 0.84375,0.10547 z"
           style="font-style:normal;font-variant:normal;font-weight:normal;font-stretch:normal;line-height:1;font-family:'Roboto Condensed';-inkscape-font-specification:'Roboto Condensed, ';text-align:end;text-anchor:end;fill:#ffffff"
           id="path28" />
        <path
           d="m 524.87305,211.22877 0.0586,1.37109 q 0.57422,-0.76172 1.34766,-1.18359 0.78515,-0.42188 1.73437,-0.42188 0.77344,0 1.40625,0.25781 0.63281,0.2461 1.07813,0.8086 0.44531,0.55078 0.67968,1.42968 0.2461,0.86719 0.2461,2.10938 v 8.30859 h -2.0625 v -8.33203 q 0,-1.48828 -0.50391,-2.10937 -0.49219,-0.63282 -1.48828,-0.63282 -0.77344,0 -1.39453,0.51563 -0.60938,0.51562 -0.98438,1.34766 v 9.21093 h -2.07421 v -12.67968 z"
           style="font-style:normal;font-variant:normal;font-weight:normal;font-stretch:normal;line-height:1;font-family:'Roboto Condensed';-inkscape-font-specification:'Roboto Condensed, ';text-align:end;text-anchor:end;fill:#ffffff"
           id="path30" />
        <path
           d="m 536.49805,211.22877 0.0586,1.37109 q 0.57422,-0.76172 1.34766,-1.18359 0.78515,-0.42188 1.73437,-0.42188 0.77344,0 1.40625,0.25781 0.63281,0.2461 1.07813,0.8086 0.44531,0.55078 0.67968,1.42968 0.2461,0.86719 0.2461,2.10938 v 8.30859 h -2.0625 v -8.33203 q 0,-1.48828 -0.50391,-2.10937 -0.49219,-0.63282 -1.48828,-0.63282 -0.77344,0 -1.39453,0.51563 -0.60938,0.51562 -0.98438,1.34766 v 9.21093 h -2.07421 v -12.67968 z"
           style="font-style:normal;font-variant:normal;font-weight:normal;font-stretch:normal;line-height:1;font-family:'Roboto Condensed';-inkscape-font-specification:'Roboto Condensed, ';text-align:end;text-anchor:end;fill:#ffffff"
           id="path32" />
        <path
           d="m 550.70117,224.14283 q -1.13672,0 -2.05078,-0.33985 -0.91406,-0.33984 -1.55859,-1.03125 -0.63282,-0.70312 -0.97266,-1.76953 -0.33984,-1.0664 -0.33984,-2.51953 v -1.42969 q 0,-1.67578 0.39843,-2.82421 0.39844,-1.16016 1.04297,-1.875 0.65625,-0.72657 1.5,-1.04297 0.84375,-0.31641 1.7461,-0.31641 1.19531,0 2.03906,0.39844 0.84375,0.38672 1.38281,1.14844 0.53906,0.76171 0.78516,1.875 0.24609,1.11328 0.24609,2.5664 v 1.20703 h -7.07812 v 0.29297 q 0,2.03906 0.76172,2.96485 0.77343,0.92578 2.21484,0.92578 0.52734,0 0.94922,-0.10547 0.42187,-0.10547 0.77344,-0.29297 0.35156,-0.19922 0.64453,-0.45703 0.29297,-0.26953 0.55078,-0.58594 l 1.07812,1.3125 q -0.25781,0.36328 -0.62109,0.70313 -0.36328,0.33984 -0.86719,0.60937 -0.5039,0.25781 -1.16015,0.42188 -0.64454,0.16406 -1.46485,0.16406 z m -0.23437,-11.36719 q -0.53907,0 -0.9961,0.16406 -0.45703,0.16407 -0.80859,0.58594 -0.33984,0.41016 -0.55078,1.11328 -0.21094,0.70313 -0.25781,1.76953 h 4.99218 v -0.28125 q -0.0351,-0.73828 -0.16406,-1.34765 -0.11719,-0.6211 -0.38672,-1.06641 -0.25781,-0.44531 -0.70312,-0.69141 -0.44532,-0.24609 -1.125,-0.24609 z"
           style="font-style:normal;font-variant:normal;font-weight:normal;font-stretch:normal;line-height:1;font-family:'Roboto Condensed';-inkscape-font-specification:'Roboto Condensed, ';text-align:end;text-anchor:end;fill:#ffffff"
           id="path35" />
        <path
           d="m 563.58008,220.66236 q 0,-0.35156 -0.12891,-0.63281 -0.1289,-0.29297 -0.42187,-0.55078 -0.29297,-0.26954 -0.76172,-0.52735 -0.45703,-0.25781 -1.13672,-0.5625 -0.87891,-0.36328 -1.58203,-0.71484 -0.69141,-0.35156 -1.17188,-0.77344 -0.46875,-0.43359 -0.72656,-0.98437 -0.24609,-0.5625 -0.24609,-1.32422 0,-0.75 0.28125,-1.40625 0.29297,-0.65625 0.82031,-1.13672 0.52734,-0.49219 1.26562,-0.77344 0.73829,-0.28125 1.65235,-0.28125 0.96094,0 1.72265,0.29297 0.76172,0.29297 1.28907,0.82031 0.52734,0.51563 0.80859,1.21875 0.28125,0.70313 0.28125,1.51172 h -2.0625 q 0,-0.38672 -0.14062,-0.75 -0.12891,-0.375 -0.39844,-0.66797 -0.25781,-0.29297 -0.63281,-0.46875 -0.375,-0.17578 -0.86719,-0.17578 -0.52735,0 -0.90235,0.15234 -0.36328,0.14063 -0.59765,0.38672 -0.23438,0.23438 -0.35156,0.55078 -0.10547,0.31641 -0.10547,0.65625 0,0.35157 0.0937,0.60938 0.10547,0.24609 0.35156,0.46875 0.24609,0.22266 0.66797,0.44531 0.43359,0.22266 1.10156,0.51563 0.96094,0.375 1.69922,0.76172 0.75,0.375 1.25391,0.83203 0.5039,0.44531 0.76171,1.01953 0.25782,0.57422 0.25782,1.33594 0,0.83203 -0.30469,1.51171 -0.29297,0.66797 -0.84375,1.14844 -0.55078,0.46875 -1.32422,0.72656 -0.77344,0.2461 -1.71094,0.2461 -1.07812,0 -1.91015,-0.32813 -0.83203,-0.33984 -1.39453,-0.89062 -0.5625,-0.5625 -0.85547,-1.28906 -0.28125,-0.72657 -0.28125,-1.51172 h 2.08593 q 0.0234,0.66797 0.2461,1.10156 0.22265,0.43359 0.55078,0.69141 0.33984,0.25781 0.75,0.36328 0.41016,0.0937 0.80859,0.0937 1.03125,0 1.57032,-0.45703 0.53906,-0.46875 0.53906,-1.25391 z"
           style="font-style:normal;font-variant:normal;font-weight:normal;font-stretch:normal;line-height:1;font-family:'Roboto Condensed';-inkscape-font-specification:'Roboto Condensed, ';text-align:end;text-anchor:end;fill:#ffffff"
           id="path37" />
        <path
           d="m 501.16602,244.77588 q 0,-0.44531 -0.082,-0.79687 -0.082,-0.35156 -0.35156,-0.65625 -0.25781,-0.31641 -0.75,-0.60938 -0.48047,-0.29296 -1.28906,-0.62109 -0.96094,-0.36328 -1.83984,-0.83203 -0.86719,-0.46875 -1.53516,-1.10156 -0.65625,-0.64453 -1.05469,-1.47657 -0.38672,-0.84375 -0.38672,-1.95703 0,-1.0664 0.39844,-1.94531 0.39844,-0.89062 1.11328,-1.51172 0.72656,-0.62109 1.71094,-0.96094 0.99609,-0.35156 2.19141,-0.35156 1.23046,0 2.21484,0.39844 0.99609,0.38672 1.6875,1.08984 0.70312,0.69141 1.07812,1.66407 0.375,0.96093 0.375,2.12109 h -3.43359 q 0,-0.53906 -0.11719,-0.98438 -0.10547,-0.45703 -0.35156,-0.77343 -0.23437,-0.32813 -0.60937,-0.50391 -0.375,-0.1875 -0.90235,-0.1875 -0.49219,0 -0.85547,0.15234 -0.35156,0.15235 -0.58593,0.42188 -0.23438,0.25781 -0.35157,0.62109 -0.11718,0.36328 -0.11718,0.77344 0,0.42188 0.17578,0.76172 0.1875,0.33984 0.51562,0.63281 0.33985,0.29297 0.8086,0.55078 0.48046,0.25782 1.05468,0.50391 1.19532,0.43359 2.08594,0.96094 0.89063,0.52734 1.48828,1.19531 0.59766,0.66797 0.89063,1.51172 0.29297,0.83203 0.29297,1.88672 0,1.125 -0.375,2.0039 -0.36329,0.87891 -1.05469,1.48828 -0.67969,0.59766 -1.65235,0.92579 -0.97265,0.3164 -2.1914,0.3164 -1.10156,0 -2.16797,-0.32812 -1.05469,-0.33985 -1.88672,-1.03125 -0.83203,-0.69141 -1.34766,-1.7461 -0.5039,-1.05468 -0.5039,-2.50781 h 3.45703 q 0,0.77344 0.15234,1.3125 0.15235,0.53906 0.45703,0.87891 0.31641,0.32812 0.77344,0.48047 0.45703,0.14062 1.06641,0.14062 0.49219,0 0.83203,-0.14062 0.35156,-0.15235 0.5625,-0.39844 0.22266,-0.25781 0.31641,-0.60938 0.0937,-0.35156 0.0937,-0.76172 z"
           style="font-style:normal;font-variant:normal;font-weight:bold;font-stretch:normal;line-height:1;font-family:'Roboto Condensed';-inkscape-font-specification:'Roboto Condensed, Bold';text-align:end;text-anchor:end;fill:#ffffff"
           id="path39" />
        <path
           d="m 511.36133,246.73292 q 0.6914,0 1.0664,-0.42188 0.38672,-0.43359 0.39844,-1.45312 h 3.11719 q -0.0117,1.07812 -0.36328,1.94531 -0.35156,0.85547 -0.96094,1.45312 -0.59766,0.59766 -1.41797,0.91407 -0.82031,0.3164 -1.76953,0.3164 -1.27734,0 -2.22656,-0.41015 -0.94922,-0.41016 -1.58203,-1.1836 -0.6211,-0.78515 -0.9375,-1.92187 -0.30469,-1.13672 -0.30469,-2.58985 v -0.91406 q 0,-1.45312 0.30469,-2.58984 0.3164,-1.14844 0.9375,-1.9336 0.62109,-0.78515 1.57031,-1.19531 0.94922,-0.41016 2.21484,-0.41016 1.01953,0 1.85157,0.32813 0.84375,0.31641 1.42968,0.94922 0.59766,0.62109 0.91407,1.54687 0.32812,0.92578 0.33984,2.14453 h -3.11719 q -0.0117,-1.0664 -0.35156,-1.64062 -0.33984,-0.57422 -1.125,-0.57422 -0.55078,0 -0.87891,0.22266 -0.3164,0.22265 -0.49218,0.65625 -0.16407,0.42187 -0.22266,1.05468 -0.0469,0.6211 -0.0469,1.44141 v 0.91406 q 0,0.83203 0.0469,1.46485 0.0469,0.62109 0.21094,1.04297 0.17578,0.42187 0.5039,0.63281 0.32813,0.21094 0.89063,0.21094 z"
           style="font-style:normal;font-variant:normal;font-weight:bold;font-stretch:normal;line-height:1;font-family:'Roboto Condensed';-inkscape-font-specification:'Roboto Condensed, Bold';text-align:end;text-anchor:end;fill:#ffffff"
           id="path41" />
        <path
           d="m 521.07617,237.68604 q 0.51563,-0.64453 1.17188,-0.99609 0.66797,-0.35157 1.47656,-0.35157 0.78516,0 1.44141,0.26954 0.65625,0.26953 1.125,0.85546 0.46875,0.58594 0.72656,1.52344 0.25781,0.9375 0.25781,2.28516 v 7.98047 h -3.32812 v -8.00391 q 0,-0.60937 -0.0937,-1.01953 -0.0937,-0.41016 -0.28125,-0.65625 -0.1875,-0.24609 -0.45704,-0.35156 -0.26953,-0.10547 -0.63281,-0.10547 -0.49219,0 -0.83203,0.22265 -0.33984,0.22266 -0.57422,0.60938 v 9.30469 h -3.3164 v -18 h 3.3164 z"
           style="font-style:normal;font-variant:normal;font-weight:bold;font-stretch:normal;line-height:1;font-family:'Roboto Condensed';-inkscape-font-specification:'Roboto Condensed, Bold';text-align:end;text-anchor:end;fill:#ffffff"
           id="path43" />
        <path
           d="m 535.67773,249.25245 q -0.0937,-0.19922 -0.16406,-0.44532 -0.0586,-0.25781 -0.11719,-0.53906 -0.375,0.51563 -0.97265,0.86719 -0.58594,0.35156 -1.44141,0.35156 -0.77344,0 -1.45312,-0.26953 -0.66797,-0.26953 -1.17188,-0.76172 -0.49219,-0.49219 -0.78515,-1.18359 -0.28125,-0.70313 -0.28125,-1.57031 0,-0.96094 0.30468,-1.73438 0.31641,-0.78516 0.9375,-1.32422 0.63282,-0.55078 1.57032,-0.84375 0.94921,-0.29297 2.22656,-0.29297 h 0.90234 v -1.01953 q 0,-0.85547 -0.29297,-1.20703 -0.29297,-0.35156 -0.85547,-0.35156 -0.64453,0 -0.94921,0.38672 -0.29297,0.375 -0.29297,1.0664 h -3.31641 q 0,-0.83203 0.31641,-1.55859 0.32812,-0.73828 0.9375,-1.28906 0.60937,-0.55078 1.46484,-0.86719 0.85547,-0.32813 1.93359,-0.32813 0.94922,0 1.7461,0.2461 0.79687,0.23437 1.38281,0.75 0.58594,0.5039 0.91406,1.30078 0.32813,0.78516 0.32813,1.89844 v 5.625 q 0,0.55078 0.0234,0.98437 0.0352,0.42188 0.0937,0.77344 0.0586,0.33984 0.14062,0.62109 0.0937,0.26953 0.21094,0.51563 v 0.19922 z m -1.95703,-2.36719 q 0.55078,0 0.9375,-0.22266 0.38672,-0.22265 0.57422,-0.52734 v -2.63672 h -0.78515 q -0.46875,0 -0.8086,0.15234 -0.33984,0.15235 -0.57422,0.42188 -0.22265,0.26953 -0.33984,0.63281 -0.10547,0.36328 -0.10547,0.77344 0,0.69141 0.28125,1.05469 0.29297,0.35156 0.82031,0.35156 z m -4.18359,-13.62891 q 0,-0.3164 0.11719,-0.58593 0.1289,-0.28125 0.33984,-0.48047 0.22266,-0.19922 0.51563,-0.31641 0.30468,-0.11719 0.65625,-0.11719 0.35156,0 0.64453,0.11719 0.30468,0.11719 0.51562,0.31641 0.22266,0.19922 0.33985,0.48047 0.1289,0.26953 0.1289,0.58593 0,0.31641 -0.1289,0.58594 -0.11719,0.26953 -0.33985,0.46875 -0.21094,0.19922 -0.51562,0.31641 -0.29297,0.11718 -0.64453,0.11718 -0.35157,0 -0.65625,-0.11718 -0.29297,-0.11719 -0.51563,-0.31641 -0.21094,-0.19922 -0.33984,-0.46875 -0.11719,-0.26953 -0.11719,-0.58594 z m 5.73047,0 q 0,-0.3164 0.11719,-0.58593 0.1289,-0.26954 0.33984,-0.46875 0.22266,-0.19922 0.51562,-0.31641 0.30469,-0.11719 0.65625,-0.11719 0.35157,0 0.64454,0.11719 0.30468,0.11719 0.51562,0.31641 0.22266,0.19921 0.33984,0.46875 0.12891,0.26953 0.12891,0.58593 0,0.31641 -0.12891,0.58594 -0.11718,0.26953 -0.33984,0.48047 -0.21094,0.19922 -0.51562,0.31641 -0.29297,0.10546 -0.64454,0.10546 -0.35156,0 -0.65625,-0.10546 -0.29296,-0.11719 -0.51562,-0.31641 -0.21094,-0.21094 -0.33984,-0.48047 -0.11719,-0.26953 -0.11719,-0.58594 z"
           style="font-style:normal;font-variant:normal;font-weight:bold;font-stretch:normal;line-height:1;font-family:'Roboto Condensed';-inkscape-font-specification:'Roboto Condensed, Bold';text-align:end;text-anchor:end;fill:#ffffff"
           id="path45" />
        <path
           d="m 541.71289,249.25245 v -10.1836 h -1.53516 v -2.49609 h 1.53516 v -1.08984 q 0,-1.08985 0.28125,-1.92188 0.29297,-0.83203 0.83203,-1.39453 0.53906,-0.57422 1.30078,-0.86719 0.77344,-0.29297 1.72266,-0.29297 0.41016,0 0.77344,0.0703 0.36328,0.0703 0.72656,0.16406 l -0.0234,2.64844 q -0.33984,-0.10547 -0.80859,-0.10547 -0.71485,0 -1.10156,0.43359 -0.375,0.43359 -0.375,1.26563 v 1.08984 h 1.98046 v 2.49609 h -1.98046 v 10.1836 z"
           style="font-style:normal;font-variant:normal;font-weight:bold;font-stretch:normal;line-height:1;font-family:'Roboto Condensed';-inkscape-font-specification:'Roboto Condensed, Bold';text-align:end;text-anchor:end;fill:#ffffff"
           id="path47" />
        <path
           d="m 553.66602,249.48682 q -1.30079,0 -2.3086,-0.39844 -1.00781,-0.39843 -1.69922,-1.14843 -0.6914,-0.75 -1.05468,-1.82813 -0.35157,-1.08984 -0.35157,-2.47265 v -1.04297 q 0,-1.54688 0.33985,-2.70703 0.35156,-1.17188 0.99609,-1.95704 0.65625,-0.79687 1.59375,-1.19531 0.94922,-0.39844 2.14453,-0.39844 2.41406,0 3.6211,1.5586 1.20703,1.55859 1.20703,4.61719 v 1.51171 h -6.59766 q 0.0352,0.76172 0.19922,1.27735 0.17578,0.51562 0.46875,0.83203 0.29297,0.31641 0.70312,0.45703 0.42188,0.14063 0.94922,0.14063 0.87891,0 1.5586,-0.29297 0.6914,-0.30469 1.21875,-0.84375 l 1.30078,2.0039 q -0.2461,0.33985 -0.64453,0.67969 -0.39844,0.32813 -0.9375,0.59766 -0.53907,0.26953 -1.21875,0.43359 -0.67969,0.17578 -1.48828,0.17578 z m -0.36329,-10.39453 q -0.86718,0 -1.26562,0.62109 -0.38672,0.6211 -0.45703,1.99219 h 3.3164 v -0.30469 q -0.0234,-1.13671 -0.375,-1.72265 -0.35156,-0.58594 -1.21875,-0.58594 z"
           style="font-style:normal;font-variant:normal;font-weight:bold;font-stretch:normal;line-height:1;font-family:'Roboto Condensed';-inkscape-font-specification:'Roboto Condensed, Bold';text-align:end;text-anchor:end;fill:#ffffff"
           id="path49" />
        <path
           d="m 566.28711,239.77198 q -0.22266,-0.0234 -0.55078,-0.0586 -0.31641,-0.0351 -0.55078,-0.0351 -0.71485,0 -1.16016,0.30469 -0.44531,0.30468 -0.67969,0.89062 v 8.37891 h -3.32812 v -12.67969 h 3.1289 l 0.0937,1.37109 q 0.375,-0.76172 0.91407,-1.18359 0.55078,-0.42188 1.2539,-0.42188 0.22266,0 0.48047,0.0469 0.26953,0.0352 0.4336,0.10547 z"
           style="font-style:normal;font-variant:normal;font-weight:bold;font-stretch:normal;line-height:1;font-family:'Roboto Condensed';-inkscape-font-specification:'Roboto Condensed, Bold';text-align:end;text-anchor:end;fill:#ffffff"
           id="path51" />
      </g>
    </g>
  </g>
</svg>
